nColumns=19
nRows=121
DataType=double
version=3
OpenSimVersion=4.1
endheader
time	ground_force_1_vx	ground_force_1_vy	ground_force_1_vz	ground_force_1_px	ground_force_1_py	ground_force_1_pz	ground_force_1_mx	ground_force_1_my	ground_force_1_mz	ground_force_2_vx	ground_force_2_vy	ground_force_2_vz	ground_force_2_px	ground_force_2_py	ground_force_2_pz	ground_force_2_mx	ground_force_2_my	ground_force_2_mz
0.19	-17.9927	34.6924	-7.97414	0.982805	0	-0.234628	-0	0.499358	-0	0	0	0	0.000350047	0	-0.000158493	0	0	0
0.2	-56.9878	129.681	-17.8496	1.00571	0	-0.250744	-0	2.04538	-0	0	0	0	0.000350047	0	-0.000158493	0	0	0
0.21	-127.831	350.039	-32.1718	1.00721	0	-0.258828	-0	3.34645	-0	0	0	0	0.000350047	0	-0.000158493	0	0	0
0.22	-193.034	679.823	-44.8907	0.99171	0	-0.265944	-0	3.77815	-0	0	0	0	0.000350047	0	-0.000158493	0	0	0
0.23	-216.893	1031.63	-44.3666	0.959326	0	-0.274132	-0	3.01096	-0	0	0	0	0.000350047	0	-0.000158493	0	0	0
0.24	-232.302	1343.91	-24.6283	0.924102	0	-0.281335	-0	1.34485	-0	0	0	0	0.000350047	0	-0.000158493	0	0	0
0.25	-263.328	1585.02	2.81518	0.896468	0	-0.285523	0	-0.294131	0	0	0	0	0.000350047	0	-0.000158493	0	0	0
0.26	-282.418	1755.6	15.2244	0.870406	0	-0.287617	0	-0.820412	0	0	0	0	0.000350047	0	-0.000158493	0	0	0
0.27	-263.745	1886.02	3.2691	0.840182	0	-0.288449	-0	0.353629	-0	0	0	0	0.000350047	0	-0.000158493	0	0	0
0.28	-210.803	1994.52	-19.3103	0.807694	0	-0.287431	-0	2.96804	-0	0	0	0	0.000350047	0	-0.000158493	0	0	0
0.29	-140.732	2067.65	-35.9504	0.774757	0	-0.285053	-0	6.10986	-0	0	0	0	0.000350047	0	-0.000158493	0	0	0
0.3	-63.3576	2083.73	-43.7329	0.740517	0	-0.283	-0	8.71999	-0	0	0	0	0.000350047	0	-0.000158493	0	0	0
0.31	14.4154	2036.32	-45.363	0.705224	0	-0.281893	-0	10.0411	-0	0	0	0	0.000350047	0	-0.000158493	0	0	0
0.32	87.079	1932.09	-40.4969	0.670164	0	-0.280919	-0	9.83746	-0	0	0	0	0.000350047	0	-0.000158493	0	0	0
0.33	155.928	1772.36	-30.7771	0.635163	0	-0.279665	-0	8.38786	-0	0	0	0	0.000350047	0	-0.000158493	0	0	0
0.34	215.335	1554.33	-21.5271	0.599569	0	-0.278556	-0	6.2902	-0	0	0	0	0.000350047	0	-0.000158493	0	0	0
0.35	248.7	1286.37	-14.9417	0.564231	0	-0.27762	-0	4.17921	-0	0	0	0	0.000350047	0	-0.000158493	0	0	0
0.36	246.89	990.763	-9.07397	0.530638	0	-0.276177	-0	2.5036	-0	0	0	0	0.000350047	0	-0.000158493	0	0	0
0.37	214.274	697.786	-3.30228	0.498291	0	-0.273878	-0	1.44175	-0	0	0	0	0.000350047	0	-0.000158493	0	0	0
0.38	163.808	440.269	0.864398	0.463869	0	-0.271473	-0	0.930313	-0	0	0	0	0.000350047	0	-0.000158493	0	0	0
0.39	109.713	245.303	3.38987	0.431798	0	-0.269446	-0	0.756195	-0	0	0	0	0.000350047	0	-0.000158493	0	0	0
0.4	62.8807	120.627	5.62077	0.423722	0	-0.263615	-0	0.676886	-0	0	0	0	0.000350047	0	-0.000158493	0	0	0
0.41	28.3739	52.2201	6.91777	0.469992	0	-0.24288	-0	0.521018	-0	0	0	0	0.000350047	0	-0.000158493	0	0	0
0.42	8.46212	19.4647	5.41922	0.600199	0	-0.195688	-0	0.225989	-0	0	0	0	0.000350047	0	-0.000158493	0	0	0
0.43	0	0	0	0.000350047	0	-0.000158493	0	0	0	0	0	0	0.000350047	0	-0.000158493	0	0	0
0.44	0	0	0	0.000350047	0	-0.000158493	0	0	0	0	0	0	0.000350047	0	-0.000158493	0	0	0
0.45	0	0	0	0.000350047	0	-0.000158493	0	0	0	0	0	0	0.000350047	0	-0.000158493	0	0	0
0.46	0	0	0	0.000350047	0	-0.000158493	0	0	0	0	0	0	0.000350047	0	-0.000158493	0	0	0
0.47	0	0	0	0.000350047	0	-0.000158493	0	0	0	0	0	0	0.000350047	0	-0.000158493	0	0	0
0.48	0	0	0	0.000350047	0	-0.000158493	0	0	0	0	0	0	0.000350047	0	-0.000158493	0	0	0
0.49	0	0	0	0.000350047	0	-0.000158493	0	0	0	0	0	0	0.000350047	0	-0.000158493	0	0	0
0.5	0	0	0	0.000350047	0	-0.000158493	0	0	0	0	0	0	0.000350047	0	-0.000158493	0	0	0
0.51	0	0	0	0.000350047	0	-0.000158493	0	0	0	0	0	0	0.000350047	0	-0.000158493	0	0	0
0.52	0	0	0	0.000350047	0	-0.000158493	0	0	0	-14.2539	29.6156	2.86926	0.885405	0	-0.407712	-0	4.59571	-0
0.53	0	0	0	0.000350047	0	-0.000158493	0	0	0	-47.2743	117.343	13.4596	0.918499	0	-0.41768	-0	0.985136	-0
0.54	0	0	0	0.000350047	0	-0.000158493	0	0	0	-108.379	341.235	38.5587	0.932462	0	-0.409173	0	-3.87928	0
0.55	0	0	0	0.000350047	0	-0.000158493	0	0	0	-164.192	701.836	74.3765	0.928282	0	-0.396756	0	-8.5413	0
0.56	0	0	0	0.000350047	0	-0.000158493	0	0	0	-184.258	1094.53	96.3452	0.906023	0	-0.386215	0	-11.3808	0
0.57	0	0	0	0.000350047	0	-0.000158493	0	0	0	-193.825	1427.66	79.4938	0.873639	0	-0.380806	0	-11.4923	0
0.58	0	0	0	0.000350047	0	-0.000158493	0	0	0	-209.985	1691.51	34.4939	0.842726	0	-0.378135	0	-9.25297	0
0.59	0	0	0	0.000350047	0	-0.000158493	0	0	0	-218	1916.76	-1.22053	0.814717	0	-0.374443	0	-6.05523	0
0.6	0	0	0	0.000350047	0	-0.000158493	0	0	0	-197.139	2101.74	-9.79549	0.785942	0	-0.37082	0	-3.41108	0
0.61	0	0	0	0.000350047	0	-0.000158493	0	0	0	-145.244	2216.82	-4.25698	0.755134	0	-0.370112	0	-2.17491	0
0.62	0	0	0	0.000350047	0	-0.000158493	0	0	0	-78.478	2248.69	2.25234	0.722944	0	-0.371693	0	-2.33787	0
0.63	0	0	0	0.000350047	0	-0.000158493	0	0	0	-4.89142	2207.9	9.81192	0.689768	0	-0.372784	0	-3.25875	0
0.64	0	0	0	0.000350047	0	-0.000158493	0	0	0	74.2717	2103.81	16.573	0.655317	0	-0.372785	0	-4.04762	0
0.65	0	0	0	0.000350047	0	-0.000158493	0	0	0	154.234	1936.76	15.4059	0.619186	0	-0.373078	0	-3.96498	0
0.66	0	0	0	0.000350047	0	-0.000158493	0	0	0	221.292	1706.38	6.79769	0.582642	0	-0.374128	0	-2.71685	0
0.67	0	0	0	0.000350047	0	-0.000158493	0	0	0	265.017	1423.55	-1.43737	0.547934	0	-0.374586	0	-0.512101	0
0.68	0	0	0	0.000350047	0	-0.000158493	0	0	0	278.754	1107.88	-7.41346	0.516752	0	-0.373569	-0	2.09167	-0
0.69	0	0	0	0.000350047	0	-0.000158493	0	0	0	254.856	781.953	-15.892	0.488056	0	-0.373118	-0	4.39511	-0
0.7	0	0	0	0.000350047	0	-0.000158493	0	0	0	200.065	482.867	-26.1027	0.454627	0	-0.377011	-0	5.75093	-0
0.71	0	0	0	0.000350047	0	-0.000158493	0	0	0	135.416	256.786	-29.4998	0.408757	0	-0.385038	-0	5.79075	-0
0.72	0	0	0	0.000350047	0	-0.000158493	0	0	0	74.6194	121.698	-21.6824	0.384152	0	-0.381848	-0	4.63041	-0
0.73	0	0	0	0.000350047	0	-0.000158493	0	0	0	25.9939	52.2575	-9.53885	0.462446	0	-0.346057	-0	2.86028	-0
0.74	0	0	0	0.000350047	0	-0.000158493	0	0	0	1.50041	17.4015	-2.78078	0.671562	0	-0.282066	-0	1.23901	-0
0.75	0	0	0	0.000350047	0	-0.000158493	0	0	0	0	0	0	0.000350047	0	-0.000158493	0	0	0
0.76	0	0	0	0.000350047	0	-0.000158493	0	0	0	0	0	0	0.000350047	0	-0.000158493	0	0	0
0.77	0	0	0	0.000350047	0	-0.000158493	0	0	0	0	0	0	0.000350047	0	-0.000158493	0	0	0
0.78	0	0	0	0.000350047	0	-0.000158493	0	0	0	0	0	0	0.000350047	0	-0.000158493	0	0	0
0.79	0	0	0	0.000350047	0	-0.000158493	0	0	0	0	0	0	0.000350047	0	-0.000158493	0	0	0
0.8	0	0	0	0.000350047	0	-0.000158493	0	0	0	0	0	0	0.000350047	0	-0.000158493	0	0	0
0.81	0	0	0	0.000350047	0	-0.000158493	0	0	0	0	0	0	0.000350047	0	-0.000158493	0	0	0
0.82	0	0	0	0.000350047	0	-0.000158493	0	0	0	0	0	0	0.000350047	0	-0.000158493	0	0	0
0.83	0	0	0	0.000350047	0	-0.000158493	0	0	0	0	0	0	0.000350047	0	-0.000158493	0	0	0
0.84	-5.80282	16.6586	-5.84499	0.885955	0	-0.253866	0	-1.34082	0	0	0	0	0.000350047	0	-0.000158493	0	0	0
0.85	-26.7285	65.5967	-14.8503	0.924346	0	-0.261963	-0	0.464752	-0	0	0	0	0.000350047	0	-0.000158493	0	0	0
0.86	-74.8342	209.442	-28.8349	0.943223	0	-0.265281	-0	2.97403	-0	0	0	0	0.000350047	0	-0.000158493	0	0	0
0.87	-136.997	477.916	-45.2593	0.943951	0	-0.269995	-0	5.33444	-0	0	0	0	0.000350047	0	-0.000158493	0	0	0
0.88	-171.231	813.329	-54.4527	0.924687	0	-0.276101	-0	6.61209	-0	0	0	0	0.000350047	0	-0.000158493	0	0	0
0.89	-174.591	1147.32	-45.7797	0.890015	0	-0.283369	-0	6.28079	-0	0	0	0	0.000350047	0	-0.000158493	0	0	0
0.9	-188.136	1450.15	-18.8059	0.856001	0	-0.290091	-0	4.58226	-0	0	0	0	0.000350047	0	-0.000158493	0	0	0
0.91	-209.497	1703.18	12.2594	0.827441	0	-0.294956	-0	2.47356	-0	0	0	0	0.000350047	0	-0.000158493	0	0	0
0.92	-206.13	1897.46	28.4258	0.798168	0	-0.297746	-0	1.12387	-0	0	0	0	0.000350047	0	-0.000158493	0	0	0
0.93	-165.472	2033.52	23.4069	0.766483	0	-0.298712	-0	1.26823	-0	0	0	0	0.000350047	0	-0.000158493	0	0	0
0.94	-106.761	2109.91	8.0173	0.735344	0	-0.298227	-0	2.85357	-0	0	0	0	0.000350047	0	-0.000158493	0	0	0
0.95	-46.8476	2123.96	-4.43325	0.705663	0	-0.296801	-0	5.16766	-0	0	0	0	0.000350047	0	-0.000158493	0	0	0
0.96	20.8499	2076.08	-10.0525	0.67477	0	-0.295498	-0	7.27156	-0	0	0	0	0.000350047	0	-0.000158493	0	0	0
0.97	101.487	1972.26	-10.0301	0.640812	0	-0.294934	-0	8.42808	-0	0	0	0	0.000350047	0	-0.000158493	0	0	0
0.98	182.478	1821.26	-4.66518	0.605311	0	-0.29456	-0	8.34965	-0	0	0	0	0.000350047	0	-0.000158493	0	0	0
0.99	248.162	1624.07	4.28513	0.569954	0	-0.293956	-0	7.22852	-0	0	0	0	0.000350047	0	-0.000158493	0	0	0
1	290.033	1379.45	12.6342	0.534199	0	-0.293383	-0	5.57423	-0	0	0	0	0.000350047	0	-0.000158493	0	0	0
1.01	298.658	1097.84	17.782	0.498827	0	-0.292794	-0	3.94948	-0	0	0	0	0.000350047	0	-0.000158493	0	0	0
1.02	269.677	804.786	20.0536	0.466625	0	-0.291493	-0	2.74459	-0	0	0	0	0.000350047	0	-0.000158493	0	0	0
1.03	212.831	532.652	20.2607	0.436822	0	-0.28915	-0	2.0835	-0	0	0	0	0.000350047	0	-0.000158493	0	0	0
1.04	144.757	311.937	18.5719	0.409816	0	-0.286048	-0	1.85751	-0	0	0	0	0.000350047	0	-0.000158493	0	0	0
1.05	80.5261	159.161	15.3651	0.404576	0	-0.280793	-0	1.82975	-0	0	0	0	0.000350047	0	-0.000158493	0	0	0
1.06	32.9925	68.5276	11.3084	0.434757	0	-0.26679	-0	1.75316	-0	0	0	0	0.000350047	0	-0.000158493	0	0	0
1.07	7.31361	24.3779	6.9754	0.484569	0	-0.232011	-0	1.46314	-0	0	0	0	0.000350047	0	-0.000158493	0	0	0
1.08	0	0	0	0.000350047	0	-0.000158493	0	0	0	0	0	0	0.000350047	0	-0.000158493	0	0	0
1.09	0	0	0	0.000350047	0	-0.000158493	0	0	0	0	0	0	0.000350047	0	-0.000158493	0	0	0
1.1	0	0	0	0.000350047	0	-0.000158493	0	0	0	0	0	0	0.000350047	0	-0.000158493	0	0	0
1.11	0	0	0	0.000350047	0	-0.000158493	0	0	0	0	0	0	0.000350047	0	-0.000158493	0	0	0
1.12	0	0	0	0.000350047	0	-0.000158493	0	0	0	0	0	0	0.000350047	0	-0.000158493	0	0	0
1.13	0	0	0	0.000350047	0	-0.000158493	0	0	0	0	0	0	0.000350047	0	-0.000158493	0	0	0
1.14	0	0	0	0.000350047	0	-0.000158493	0	0	0	0	0	0	0.000350047	0	-0.000158493	0	0	0
1.15	0	0	0	0.000350047	0	-0.000158493	0	0	0	0	0	0	0.000350047	0	-0.000158493	0	0	0
1.16	0	0	0	0.000350047	0	-0.000158493	0	0	0	0	0	0	0.000350047	0	-0.000158493	0	0	0
1.17	0	0	0	0.000350047	0	-0.000158493	0	0	0	-19.0559	36.789	2.02377	0.965681	0	-0.410294	-0	3.96186	-0
1.18	0	0	0	0.000350047	0	-0.000158493	0	0	0	-64.5416	138.891	12.3381	0.953868	0	-0.410331	-0	1.63533	-0
1.19	0	0	0	0.000350047	0	-0.000158493	0	0	0	-141.024	368.262	35.5466	0.954566	0	-0.400857	0	-1.63251	0
1.2	0	0	0	0.000350047	0	-0.000158493	0	0	0	-195.088	695.203	64.9074	0.943384	0	-0.388588	0	-4.80661	0
1.21	0	0	0	0.000350047	0	-0.000158493	0	0	0	-190.119	1031.91	77.7132	0.911336	0	-0.379792	0	-6.82801	0
1.22	0	0	0	0.000350047	0	-0.000158493	0	0	0	-177.52	1330.19	60.867	0.87232	0	-0.376286	0	-7.22909	0
1.23	0	0	0	0.000350047	0	-0.000158493	0	0	0	-201.178	1589.11	32.6937	0.842796	0	-0.373264	0	-6.38895	0
1.24	0	0	0	0.000350047	0	-0.000158493	0	0	0	-229.198	1831.86	16.7811	0.817655	0	-0.368266	0	-5.19624	0
1.25	0	0	0	0.000350047	0	-0.000158493	0	0	0	-206.827	2048.57	11.9044	0.787349	0	-0.364623	0	-4.46552	0
1.26	0	0	0	0.000350047	0	-0.000158493	0	0	0	-141.665	2200.41	8.60923	0.753635	0	-0.364331	0	-4.57461	0
1.27	0	0	0	0.000350047	0	-0.000158493	0	0	0	-72.5083	2268.27	10.7599	0.720933	0	-0.365168	0	-5.39331	0
1.28	0	0	0	0.000350047	0	-0.000158493	0	0	0	-3.12305	2255.79	20.7334	0.688621	0	-0.365107	0	-6.37589	0
1.29	0	0	0	0.000350047	0	-0.000158493	0	0	0	78.911	2163.94	26.6104	0.653952	0	-0.365026	0	-6.81578	0
1.3	0	0	0	0.000350047	0	-0.000158493	0	0	0	167.681	1998.02	20.5664	0.616823	0	-0.365822	0	-6.21291	0
1.31	0	0	0	0.000350047	0	-0.000158493	0	0	0	240.24	1772.04	11.0865	0.580395	0	-0.366388	0	-4.50668	0
1.32	0	0	0	0.000350047	0	-0.000158493	0	0	0	282.989	1498.61	6.3555	0.546891	0	-0.365615	0	-2.0263	0
1.33	0	0	0	0.000350047	0	-0.000158493	0	0	0	295.032	1186.53	2.02233	0.515399	0	-0.364465	-0	0.692748	-0
1.34	0	0	0	0.000350047	0	-0.000158493	0	0	0	270.304	853.352	-6.93418	0.482496	0	-0.365291	-0	3.05176	-0
1.35	0	0	0	0.000350047	0	-0.000158493	0	0	0	211.366	540.649	-15.6689	0.443486	0	-0.369734	-0	4.52383	-0
1.36	0	0	0	0.000350047	0	-0.000158493	0	0	0	140.726	298.188	-16.7944	0.402307	0	-0.375546	-0	4.84636	-0
1.37	0	0	0	0.000350047	0	-0.000158493	0	0	0	76.2086	144.735	-10.4948	0.398544	0	-0.373743	-0	4.16492	-0
1.38	0	0	0	0.000350047	0	-0.000158493	0	0	0	28.6762	59.6444	-3.57881	0.47811	0	-0.35647	-0	2.96638	-0
1.39	0	0	0	0.000350047	0	-0.000158493	0	0	0	5.40723	18.9991	-1.11248	0.6785	0	-0.320226	-0	1.81025	-0
